<svg t="1716867423106" class="icon" viewBox="0 0 1086 1024" version="1.1" xmlns="http://www.w3.org/2000/svg" p-id="98892" width="256" height="256"><path d="M894.570561 427.756938a1145.353777 1145.353777 0 0 0-35.99291-49.097624c27.277888-31.105461 21.300525-78.272135 8.878079-105.893303a31.508815 31.508815 0 0 0-5.162073-8.028462c-49.651163-57.035975-106.030615-111.484477-168.889477-162.088242-73.899606-60.310008-200.956122-73.813786-336.98512-17.975-95.843781 39.176832-157.338105 98.148048-159.71961 100.254929-12.864419 12.074875-14.065899 27.604004-3.638768 37.739347 10.457168 10.148216 29.659393 12.658451 47.325441 6.526611 40.768793-16.267182 168.481832-39.009483 231.100398 2.295686 79.593763 52.200018 54.804655 87.184542 24.102549 116.329015a1067.386303 1067.386303 0 0 0-87.188834 92.346616c-11.414061 13.684-8.028461 32.405634 6.380718 41.948818 14.434925 9.547475 34.503933 6.818399 45.982358-6.213368a1016.065941 1016.065941 0 0 1 41.554046 31.916459c-11.508463 12.671324-9.603258 31.547434 3.068065 42.197696a31.006768 31.006768 0 0 0 21.905556 7.256082 31.551725 31.551725 0 0 0 21.034483-9.783481 964.380843 964.380843 0 0 1 103.962353-94.286147c8.985354-7.032949 15.95823-7.191716 21.553695-6.397882 27.874337 3.724588 60.395828 41.592665 70.544043 59.254422 4.509841 7.560742 12.126367 13.036059 21.02161 15.172977 8.972481 2.111172 18.288243 0.703724 25.917641-3.930556a972.997171 972.997171 0 0 1 91.943262-49.303593c7.698054-3.617313 13.319265-9.809226 15.507675-17.335641 2.196992-7.517832 0.733761-15.773717-4.20518-22.905359z" fill="#E3E3E3" p-id="98893"></path><path d="M1058.701319 451.799413c-40.421222-35.332096-82.249892-77.238004-117.7193-117.951014-6.354971-7.286118-14.190338-11.864616-22.09436-12.422446-7.904022-0.574994-15.353199 2.943626-21.090266 9.594676-47.201002 54.851856-110.965266 118.526008-166.349206 166.087455-6.711124 5.779977-10.311274 13.306392-9.813517 21.287652 0.480592 7.98126 5.003306 15.889574 12.26797 22.296037 40.605735 35.731159 82.58459 77.637067 118.182727 117.946723 6.642468 7.50925 14.507872 11.66723 22.128689 12.049128 7.625107 0.403354 15.112903-2.977954 21.060229-10.019485 47.046526-55.722929 110.630568-119.401372 165.829994-166.083163 6.698251-5.668411 10.281237-13.04035 9.796353-20.862843-0.47201-7.822493-4.964687-15.593495-12.199313-21.92272z" fill="#C2C2C2" p-id="98894"></path><path d="M541.442698 470.945855a1567.905732 1567.905732 0 0 1-24.445828-24.518775c-29.685139-30.208642-60.854965-54.09664-90.020894-61.670255-29.230293-7.745255-54.487121 2.338595-75.33709 26.878826-80.554947 95.118602-201.535407 215.936004-297.615193 297.160346-53.598884 43.309065-31.023932 104.116829 33.783044 166.756851 8.28163 8.084244 16.486023 16.262891 24.591723 24.518775 29.865361 30.178605 61.112425 53.641794 90.274062 60.61896 29.230293 7.157388 54.418465-3.565821 75.182615-28.517988 80.245995-96.744891 200.913212-217.562293 296.692628-297.160346 53.392916-42.459447 31.259937-101.469282-33.105067-164.066394z" fill="#FF7070" p-id="98895"></path></svg>