<svg t="1716865919277" class="icon" viewBox="0 0 1052 1024" version="1.1" xmlns="http://www.w3.org/2000/svg" p-id="37906" width="256" height="256"><path d="M845.913043 890.434783H222.608696a66.782609 66.782609 0 0 1-66.782609-66.782609V200.347826A66.782609 66.782609 0 0 1 222.608696 133.565217h623.304347a66.782609 66.782609 0 0 1 66.782609 66.782609v623.304348a66.782609 66.782609 0 0 1-66.782609 66.782609z m-556.521739-133.565218h489.739131v-489.73913h-489.739131v489.73913z" fill="#B0D8FF" p-id="37907"></path><path d="M400.695652 1024a66.782609 66.782609 0 0 1-66.782609-66.782609v-133.565217a66.782609 66.782609 0 0 1 133.565218 0v133.565217a66.782609 66.782609 0 0 1-66.782609 66.782609z m0-756.869565a66.782609 66.782609 0 0 1-66.782609-66.782609V66.782609a66.782609 66.782609 0 0 1 133.565218 0v133.565217a66.782609 66.782609 0 0 1-66.782609 66.782609z m267.130435 756.869565a66.782609 66.782609 0 0 1-66.782609-66.782609v-133.565217a66.782609 66.782609 0 0 1 133.565218 0v133.565217a66.782609 66.782609 0 0 1-66.782609 66.782609z m0-756.869565a66.782609 66.782609 0 0 1-66.782609-66.782609V66.782609a66.782609 66.782609 0 0 1 133.565218 0v133.565217a66.782609 66.782609 0 0 1-66.782609 66.782609z m-445.217391 178.086956H89.043478a66.782609 66.782609 0 0 1 0-133.565217h133.565218a66.782609 66.782609 0 0 1 0 133.565217z m756.869565 0h-133.565218a66.782609 66.782609 0 0 1 0-133.565217h133.565218a66.782609 66.782609 0 0 1 0 133.565217z m-756.869565 267.130435H89.043478a66.782609 66.782609 0 0 1 0-133.565217h133.565218a66.782609 66.782609 0 0 1 0 133.565217z m756.869565 0h-133.565218a66.782609 66.782609 0 0 1 0-133.565217h133.565218a66.782609 66.782609 0 0 1 0 133.565217z" fill="#006EDA" p-id="37908"></path></svg>