<svg t="1716866455259" class="icon" viewBox="0 0 1024 1024" version="1.1" xmlns="http://www.w3.org/2000/svg" p-id="81951" width="256" height="256"><path d="M938.666667 486.826667v49.92a128.170667 128.170667 0 0 1-106.666667 126.293333l-60.586667 10.24a119.68 119.68 0 0 0-98.133333 97.706667l-10.24 61.013333a127.872 127.872 0 0 1-126.293333 106.666667h-49.493334a128.554667 128.554667 0 0 1-126.293333-106.666667l-10.24-61.013333a119.68 119.68 0 0 0-98.133333-97.706667l-60.586667-10.24A128.554667 128.554667 0 0 1 85.333333 536.746667v-49.92a127.786667 127.786667 0 0 1 106.666667-125.866667l60.586667-10.666667a119.68 119.68 0 0 0 98.133333-97.706666l10.24-61.013334A128.170667 128.170667 0 0 1 487.253333 85.333333h49.493334a127.530667 127.530667 0 0 1 126.293333 106.24l10.24 61.013334a119.68 119.68 0 0 0 98.133333 97.706666l60.586667 10.666667a127.402667 127.402667 0 0 1 106.666667 125.866667z" fill="#FFB531" p-id="81952"></path><path d="M512 512m-74.666667 0a74.666667 74.666667 0 1 0 149.333334 0 74.666667 74.666667 0 1 0-149.333334 0Z" fill="#030835" p-id="81953"></path></svg>