<svg t="1716865569926" class="icon" viewBox="0 0 1024 1024" version="1.1" xmlns="http://www.w3.org/2000/svg" p-id="13964" width="256" height="256"><path d="M746.666667 768L832 767.99999999 832 469.33333299l-277.333333 1e-8 0-192-85.333334 0 0 192-277.333333-1e-8 0 298.666667 85.333333 1e-8L277.333333 554.666667l192 0 0 213.333333 85.333334 0L554.666667 554.666667l192 0z" fill="#ccd9ff" p-id="13965"></path><path d="M651.99999969 152l0 199.99999969-279.99999938 0L372.00000031 152z" fill="#fe9c23" p-id="13966"></path><path d="M896 682.666667l0 213.333333-213.333333 0L682.666667 682.666667zM341.333333 682.666667l0 213.333333-213.333333 0L128 682.666667zM618.666667 682.666667l0 213.333333-213.333334 0L405.333333 682.666667z" fill="#3671fd" p-id="13967"></path></svg>