<!-- <svg t="1716544159526" class="icon" viewBox="0 0 1024 1024" version="1.1" xmlns="http://www.w3.org/2000/svg" p-id="14834" width="256" height="256"><path d="M610.56 180.266667H768L512 635.306667 256 180.266667H85.333333L512 938.666667 938.666667 180.138667z" fill="#B8CDFF" p-id="14835"></path><path d="M772.736 85.333333h-160.341333L512 267.818667 411.605333 85.333333H251.306667L512 559.402667z" fill="#165DFF" p-id="14836"></path></svg> -->


<svg t="1716544291583" class="icon" viewBox="0 0 1024 1024" version="1.1" xmlns="http://www.w3.org/2000/svg" p-id="23873" width="256" height="256"><path d="M630.272 110.08H819.2l-307.2 531.968L204.8 110.08h-35.328c-75.264 0-122.368 81.408-84.48 146.432l379.904 657.92c20.992 36.864 74.24 36.864 95.232 0l379.904-657.92c37.888-65.024-9.216-146.432-84.48-146.432h-225.28z" fill="#1697F6" p-id="23874" data-spm-anchor-id="a313x.search_index.0.i14.33683a81Jdoc8z" class=""></path><path d="M819.2 110.08h-158.72c-18.944 0-35.84 9.728-45.568 26.112l-85.504 147.456c-8.192 13.824-27.648 13.824-35.84 0L408.576 136.192c-9.216-16.384-26.624-26.112-45.568-26.112H204.8l307.2 531.968 307.2-531.968z" fill="#7BC6FF" p-id="23875" data-spm-anchor-id="a313x.search_index.0.i13.33683a81Jdoc8z" class="selected"></path></svg>