<svg t="1716863582816" class="icon" viewBox="0 0 1024 1024" version="1.1" xmlns="http://www.w3.org/2000/svg" p-id="118949" width="256" height="256"><path d="M876.544 765.952s32.768-165.888-100.352-233.472c0 0-32.768 100.352-100.352 133.12 0 0 135.168 0 200.704 100.352zM147.456 765.952S114.688 600.064 247.808 532.48c0 0 32.768 100.352 100.352 133.12 0 0-135.168 0-200.704 100.352z" fill="#FEC500" p-id="118950"></path><path d="M743.424 333.824c-57.344-202.752-233.472-266.24-233.472-266.24s-176.128 63.488-233.472 266.24C210.944 567.296 409.6 700.416 409.6 700.416h200.704s200.704-133.12 133.12-366.592z" fill="#FF4848" p-id="118951"></path><path d="M276.48 333.824C210.944 567.296 409.6 700.416 409.6 700.416h100.352V67.584s-176.128 63.488-233.472 266.24z" fill="#E64141" p-id="118952"></path><path d="M409.6 733.184h200.704l-32.768 133.12-34.816-65.536-32.768 165.888-32.768-165.888-32.768 65.536z" fill="#FF795C" p-id="118953"></path><path d="M509.952 499.712s-129.024 129.024 0 299.008c129.024-169.984 0-299.008 0-299.008z" fill="#FEC500" p-id="118954"></path><path d="M509.952 333.824m-90.112 0a90.112 90.112 0 1 0 180.224 0 90.112 90.112 0 1 0-180.224 0Z" fill="#FFFFFF" p-id="118955"></path><path d="M509.952 253.952c43.008 0 79.872 34.816 79.872 79.872s-34.816 79.872-79.872 79.872-79.872-36.864-79.872-79.872 36.864-79.872 79.872-79.872m0-20.48c-55.296 0-100.352 45.056-100.352 100.352s45.056 100.352 100.352 100.352 100.352-45.056 100.352-100.352-45.056-100.352-100.352-100.352z" fill="#FEC500" p-id="118956"></path></svg>