<svg t="1716863082441" class="icon" viewBox="0 0 1024 1024" version="1.1" xmlns="http://www.w3.org/2000/svg" p-id="73883" width="256" height="256"><path d="M739.555556 499.939556h167.537777a31.573333 31.573333 0 0 1 0 63.146666h-113.038222L490.382222 901.745778l-344.064-383.431111A248.035556 248.035556 0 0 1 85.333333 354.645333a248.035556 248.035556 0 0 1 27.989334-116.622222 221.127111 221.127111 0 0 1 75.832889-84.309333 182.158222 182.158222 0 0 1 104.561777-31.516445c56.661333 1.365333 109.966222 27.306667 146.033778 70.997334l49.265778 53.304889 48.924444-54.613334c18.944-22.357333 42.666667-40.220444 69.404445-52.337778 25.258667-11.377778 52.679111-17.351111 80.440889-17.351111a193.137778 193.137778 0 0 1 106.325333 30.833778c32.142222 20.935111 58.140444 50.062222 75.434667 84.309333a253.724444 253.724444 0 0 1 27.989333 116.622223 261.518222 261.518222 0 0 1-14.222222 84.309333h-116.849778L731.022222 341.902222a27.648 27.648 0 0 0-53.248 0l-44.657778 131.128889-59.733333-163.043555a27.648 27.648 0 0 0-53.248 0L475.022222 438.272H375.921778a30.151111 30.151111 0 0 0-28.672 31.573333 29.752889 29.752889 0 0 0 28.672 31.118223H493.226667a28.728889 28.728889 0 0 0 26.624-19.854223L546.133333 407.381333l58.823111 166.570667a27.989333 27.989333 0 0 0 53.475556 0l46.08-135.054222 18.830222 42.894222c2.56 8.078222 8.533333 14.677333 16.327111 18.090667l-0.113777 0.056889z" fill="#d81e06" p-id="73884"></path></svg>